<?xml version="1.0" encoding="UTF-8" standalone="no"?>
<svg
   width="24"
   height="24"
   fill="none"
   viewBox="0 0 24 24"
   version="1.1"
   id="svg3"
   sodipodi:docname="appearance.svg"
   inkscape:version="1.4.2 (f4327f4, 2025-05-13)"
   xmlns:inkscape="http://www.inkscape.org/namespaces/inkscape"
   xmlns:sodipodi="http://sodipodi.sourceforge.net/DTD/sodipodi-0.dtd"
   xmlns="http://www.w3.org/2000/svg"
   xmlns:svg="http://www.w3.org/2000/svg">
  <defs
     id="defs3" />
  <sodipodi:namedview
     id="namedview3"
     pagecolor="#212121"
     bordercolor="#000000"
     borderopacity="0.25"
     inkscape:showpageshadow="2"
     inkscape:pageopacity="0.0"
     inkscape:pagecheckerboard="0"
     inkscape:deskcolor="#d1d1d1"
     inkscape:zoom="35.625"
     inkscape:cx="12"
     inkscape:cy="12"
     inkscape:window-width="1920"
     inkscape:window-height="1057"
     inkscape:window-x="2872"
     inkscape:window-y="211"
     inkscape:window-maximized="1"
     inkscape:current-layer="svg3" />
  <circle
     cx="20.518421"
     cy="4.1043863"
     r="2.55"
     stroke="#edf4fb"
     stroke-width="1.5"
     id="circle1" />
  <path
     d="m 15.01979,6.068807 -5.9540006,5.954 c -0.33,0.33 -0.554,0.736 -0.65,1.18 l -0.615,2.862 a 0.75,0.75 0 0 0 0.892,0.893 l 2.8630006,-0.616 c 0.444,-0.095 0.85,-0.319 1.18,-0.649 l 5.954,-5.9539998"
     stroke="#edf4fb"
     stroke-width="1.5"
     stroke-linecap="round"
     stroke-linejoin="round"
     id="path1" />
  <path
     d="m 13.606492,4.5908771 6.567544,6.5675449"
     stroke="#edf4fb"
     stroke-width="1.5"
     stroke-linecap="round"
     id="path2"
     sodipodi:nodetypes="cc" />
  <path
     d="m 7.0263158,22.918703 c 1.23,0 2.2000008,-1.02 2.2000008,-2.28 0,-1.09 -0.9200008,-2.12 -1.9600008,-2.75 a 0.47,0.47 0 0 0 -0.48,0 c -1.04,0.63 -1.96,1.66 -1.96,2.75 0,1.26 0.97,2.28 2.2,2.28 z"
     fill="#cba6f7"
     id="path3" />
</svg>
