<?xml version="1.0" encoding="UTF-8" standalone="no"?>
<svg
   width="24"
   height="24"
   fill="none"
   viewBox="0 0 24 24"
   version="1.1"
   id="svg3"
   sodipodi:docname="externaltools.svg"
   inkscape:version="1.4.2 (f4327f4, 2025-05-13)"
   xmlns:inkscape="http://www.inkscape.org/namespaces/inkscape"
   xmlns:sodipodi="http://sodipodi.sourceforge.net/DTD/sodipodi-0.dtd"
   xmlns="http://www.w3.org/2000/svg"
   xmlns:svg="http://www.w3.org/2000/svg">
  <defs
     id="defs3" />
  <sodipodi:namedview
     id="namedview3"
     pagecolor="#ffffff"
     bordercolor="#000000"
     borderopacity="0.25"
     inkscape:showpageshadow="2"
     inkscape:pageopacity="0.0"
     inkscape:pagecheckerboard="0"
     inkscape:deskcolor="#d1d1d1"
     inkscape:zoom="35.625"
     inkscape:cx="12"
     inkscape:cy="12"
     inkscape:window-width="1920"
     inkscape:window-height="1057"
     inkscape:window-x="2872"
     inkscape:window-y="211"
     inkscape:window-maximized="1"
     inkscape:current-layer="svg3" />
  <path
     d="M4.5 19.5H7.8L18.52 8.78a2.1 2.1 0 0 0 0-2.97l-.33-.33a2.1 2.1 0 0 0-2.97 0L4.5 16.2v3.3Z"
     stroke="#edf4fb"
     stroke-width="1.5"
     stroke-linejoin="round"
     id="path1" />
  <path
     d="m 17.534163,15.887717 c 1.246689,0 2.025708,1.349464 1.402579,2.429035 -0.289325,0.500921 -0.823929,0.809679 -1.402579,0.809679 -1.246689,0 -2.025707,-1.349465 -1.402579,-2.429036 0.289325,-0.500921 0.823929,-0.809678 1.402579,-0.809678 z m 0,0.647742 c -0.747927,0 -1.215597,0.809679 -0.841634,1.457422 0.173596,0.300552 0.494444,0.485807 0.841634,0.485807 0.747927,0 1.215598,-0.809679 0.841634,-1.457421 -0.173595,-0.300553 -0.494444,-0.485808 -0.841634,-0.485808 z"
     fill="#74c7ec"
     id="path1-9"
     style="fill:#f4d35e;fill-opacity:1;stroke-width:0.431829" />
  <path
     d="m 17.538481,13.296745 c 0.316963,0.0035 0.632629,0.04016 0.94225,0.109253 0.135163,0.03023 0.236211,0.142935 0.251325,0.280257 l 0.07341,0.659402 c 0.04491,0.399873 0.463352,0.642129 0.832133,0.481921 l 0.604992,-0.265575 c 0.126094,-0.05527 0.273348,-0.02505 0.367054,0.07514 0.437011,0.466807 0.76261,1.026888 0.951751,1.637494 0.04102,0.131708 -0.0061,0.274643 -0.117026,0.356259 L 20.90804,17.02645 c -0.324303,0.23837 -0.324303,0.722881 0,0.961251 l 0.536763,0.395123 c 0.111412,0.08205 0.158481,0.224983 0.117457,0.35669 -0.189141,0.611038 -0.514739,1.170687 -0.95175,1.637494 -0.09371,0.100184 -0.240097,0.130412 -0.366191,0.07557 l -0.607583,-0.26644 c -0.368349,-0.161504 -0.787655,0.08118 -0.831701,0.481057 l -0.07298,0.65897 c -0.01468,0.136026 -0.113571,0.24787 -0.247006,0.279393 -0.625288,0.148981 -1.276917,0.148981 -1.902637,0 -0.133003,-0.03152 -0.231892,-0.143367 -0.247006,-0.279393 l -0.07255,-0.658106 c -0.04534,-0.398578 -0.463784,-0.63997 -0.831702,-0.47933 l -0.607151,0.266006 c -0.125662,0.05527 -0.272483,0.02505 -0.366622,-0.07557 -0.437011,-0.467238 -0.762177,-1.027752 -0.95175,-1.639221 -0.04059,-0.131708 0.0065,-0.274643 0.117457,-0.35669 l 0.536763,-0.395555 c 0.325167,-0.237938 0.325167,-0.722881 0,-0.961251 l -0.536763,-0.394691 c -0.110548,-0.08161 -0.157617,-0.224983 -0.117025,-0.35669 0.189572,-0.610606 0.515171,-1.170687 0.95175,-1.637494 0.09414,-0.100184 0.241392,-0.130412 0.367054,-0.07514 l 0.60456,0.265574 c 0.369645,0.160209 0.788951,-0.08248 0.833429,-0.482784 l 0.07341,-0.65897 c 0.01555,-0.137754 0.116594,-0.250461 0.251756,-0.280689 0.309621,-0.06866 0.626151,-0.104934 0.950454,-0.108821 z m 0,0.647743 c -0.195618,0.0026 -0.391236,0.01943 -0.584695,0.05052 l -0.04707,0.421897 c -0.09241,0.835156 -0.967728,1.340827 -1.737678,1.004433 l -0.387782,-0.170141 c -0.247006,0.299689 -0.443488,0.637811 -0.582105,1.000547 l 0.344599,0.253483 c 0.676675,0.497467 0.676675,1.507946 0,2.00498 l -0.345031,0.253916 c 0.138185,0.363599 0.335099,0.702153 0.582105,1.002705 l 0.390805,-0.171436 c 0.767791,-0.335098 1.640948,0.168845 1.734655,1.000979 l 0.0475,0.424919 c 0.383895,0.06478 0.776427,0.06478 1.160323,0 l 0.0475,-0.424919 c 0.09284,-0.833429 0.966864,-1.338668 1.735087,-1.002706 l 0.390805,0.171008 c 0.247006,-0.299689 0.443488,-0.63781 0.581673,-1.000978 L 20.524576,18.50978 c -0.676244,-0.497035 -0.676244,-1.507514 0,-2.00498 l 0.343736,-0.253484 C 20.730126,15.88858 20.533644,15.550458 20.286207,15.250769 l -0.386919,0.169709 c -0.769086,0.336826 -1.644403,-0.168845 -1.737246,-1.003569 l -0.0475,-0.421465 c -0.190005,-0.03109 -0.3826,-0.04793 -0.575627,-0.05052 z"
     fill="#edf4fb"
     id="path2-4"
     style="fill:#f4d35e;fill-opacity:1;stroke-width:0.431829" />
  <path
     d="M14.75 6.25 17.75 9.25"
     stroke="#edf4fb"
     stroke-width="1.5"
     stroke-linecap="round"
     id="path2" />
</svg>
