<?xml version="1.0" encoding="UTF-8" standalone="no"?>
<svg
   width="24"
   height="24"
   fill="none"
   viewBox="0 0 24 24"
   version="1.1"
   id="svg1"
   sodipodi:docname="server.svg"
   inkscape:version="1.4.2 (f4327f4, 2025-05-13)"
   xmlns:inkscape="http://www.inkscape.org/namespaces/inkscape"
   xmlns:sodipodi="http://sodipodi.sourceforge.net/DTD/sodipodi-0.dtd"
   xmlns="http://www.w3.org/2000/svg"
   xmlns:svg="http://www.w3.org/2000/svg">
  <defs
     id="defs1" />
  <sodipodi:namedview
     id="namedview1"
     pagecolor="#ffffff"
     bordercolor="#000000"
     borderopacity="0.25"
     inkscape:showpageshadow="2"
     inkscape:pageopacity="0.0"
     inkscape:pagecheckerboard="0"
     inkscape:deskcolor="#d1d1d1"
     inkscape:zoom="35.625"
     inkscape:cx="12"
     inkscape:cy="12"
     inkscape:window-width="1920"
     inkscape:window-height="1057"
     inkscape:window-x="2872"
     inkscape:window-y="-8"
     inkscape:window-maximized="1"
     inkscape:current-layer="svg1" />
  <path
     d="m 9.25,6 a 0.75,0.75 0 0 0 0,1.5 h 5.5 a 0.75,0.75 0 0 0 0,-1.5 z M 8.5,17.75 A 0.75,0.75 0 0 1 9.25,17 h 5.5 a 0.75,0.75 0 0 1 0,1.5 H 9.25 A 0.75,0.75 0 0 1 8.5,17.75 Z M 9.25,14 a 0.75,0.75 0 0 0 0,1.5 h 5.5 a 0.75,0.75 0 0 0 0,-1.5 z M 6,5 A 3,3 0 0 1 9,2 h 6 a 3,3 0 0 1 3,3 v 14 a 3,3 0 0 1 -3,3 H 9 A 3,3 0 0 1 6,19 Z M 9,3.5 A 1.5,1.5 0 0 0 7.5,5 V 19 A 1.5,1.5 0 0 0 9,20.5 h 6 A 1.5,1.5 0 0 0 16.5,19 V 5 A 1.5,1.5 0 0 0 15,3.5 Z"
     fill="#edf4fb"
     id="path1"
     style="display:inline;fill:#f4d35e;fill-opacity:1" />
  <path
     d="M 6,5 C 6,3.3431458 7.3431458,2 9,2 h 6 c 1.656854,0 3,1.3431458 3,3 v 14 c 0,1.656854 -1.343146,3 -3,3 H 9 C 7.3431458,22 6,20.656854 6,19 Z M 9,3.5 C 8.1715729,3.5 7.5,4.1715729 7.5,5 v 14 c 0,0.828427 0.6715729,1.5 1.5,1.5 h 6 c 0.828427,0 1.5,-0.671573 1.5,-1.5 V 5 C 16.5,4.1715729 15.828427,3.5 15,3.5 Z"
     fill="#edf4fb"
     id="path2"
     sodipodi:nodetypes="ssssssssssssssssss" />
</svg>
